<svg aria-hidden="true" style="position:absolute;width:0;height:0" xmlns="http://www.w3.org/2000/svg" overflow="hidden"><defs><symbol id="electric-razor" viewBox="0 0 32 32"><path d="M15.21 12.674v-1.511h1.511v1.511H15.21zM15.432 20.467a.749.749 0 00-.221.534v2.834a.751.751 0 00.755.755.753.753 0 00.755-.755v-2.834a.751.751 0 00-.755-.755.751.751 0 00-.534.221z"/><path d="M18.045 13.335a.659.659 0 01-.662.662h-2.834a.663.663 0 01-.662-.662v-2.173H9.99v12.319c0 1.596.622 3.097 1.75 4.225a5.935 5.935 0 003.564 1.714v1.576a.662.662 0 001.324 0V29.42a5.93 5.93 0 003.564-1.714 5.935 5.935 0 001.75-4.225V11.162h-3.897v2.173zm0 7.666v2.834c0 .555-.216 1.077-.609 1.47s-.915.609-1.47.609-1.077-.216-1.47-.609a2.065 2.065 0 01-.609-1.47v-2.834c0-.555.216-1.077.609-1.47s.915-.609 1.47-.609c.555 0 1.077.216 1.47.609s.609.915.609 1.47zM21.28 5.588a.662.662 0 00-.662.662v.755h-.802V6.25a.662.662 0 10-1.323 0v.756h-.802v-.755a.662.662 0 10-1.323 0v.756h-.802v-.756a.661.661 0 10-1.323.001v.756h-.802v-.756a.66.66 0 10-1.323.001v.755h-.803v-.756a.66.66 0 10-1.323.001V9.842h11.951V6.253a.66.66 0 00-.661-.661z"/></symbol><symbol id="perfume" viewBox="0 0 32 32"><path d="M3.75 0v3.75h-.938v1.875h7.5V3.75h-.938V1.875h4.299l1.6 1.6 1.326-1.326-2.15-2.15H3.748zM22.563 25.376a.938.938 0 001.875-.001c-.008-.287-.398-1.104-.937-2.012-.54.91-.93 1.727-.938 2.013z"/><path d="M28.25 15.063v-1.875h-9.5v1.875h-1.517C15.623 18.316 15 21.26 15 23.501c0 2.238.621 5.244 2.233 8.5h12.534c1.61-3.253 2.233-6.26 2.233-8.5 0-2.238-.621-5.181-2.233-8.438H28.25zM23.5 28.188a2.816 2.816 0 01-2.813-2.813c0-1.198 1.427-3.394 2.041-4.283l.772-1.117.772 1.117c.613.889 2.041 3.084 2.041 4.283a2.816 2.816 0 01-2.812 2.813zM18.75 5.625h9.5v5.687h-9.5V5.625zM5.625 21.626a.938.938 0 001.876-.001c-.008-.288-.398-1.104-.938-2.012-.54.91-.93 1.727-.938 2.013zM0 28.188h13.125v3.813H0v-3.813zM0 7.5h13.125v3.812H0V7.5z"/><path d="M13.125 13.188H0v13.125h13.125V13.188zM6.563 24.437a2.816 2.816 0 01-2.813-2.812c0-1.198 1.427-3.394 2.041-4.283l.772-1.117.772 1.117c.613.889 2.041 3.084 2.041 4.283a2.815 2.815 0 01-2.812 2.812z"/></symbol><symbol id="scissors" viewBox="0 0 28 32"><path d="M4.795.475C2.738 1.915 2.196 4.78 3.636 6.837l7.408 10.58-2.694 3.847a5.565 5.565 0 00-5.976 9.378 5.567 5.567 0 008.178-7.038l3.299-4.712 3.299 4.712a5.567 5.567 0 008.177 7.038 5.566 5.566 0 00-5.976-9.378l-2.694-3.847 7.407-10.579c1.441-2.058.898-4.922-1.159-6.362L13.85 13.409 4.794.476zm3.67 25.596a2.886 2.886 0 11-5.772 0 2.886 2.886 0 015.772 0zm16.544 0a2.886 2.886 0 11-5.772 0 2.886 2.886 0 015.772 0z"/></symbol><symbol id="facebook" viewBox="0 0 16 32"><path d="M13.079 5.313H16V.225C15.496.156 13.763 0 11.744 0 7.532 0 4.647 2.649 4.647 7.519V12H-.001v5.688h4.648V32h5.698V17.689h4.46l.708-5.688h-5.169V8.082c.001-1.644.444-2.769 2.734-2.769z"/></symbol><symbol id="google" viewBox="0 0 30 32"><path d="M25.937 13.099v-3.93h-2.62v3.93h-3.93v2.62h3.93v3.93h2.62v-3.93h3.93v-2.62h-3.93zM15.85 17.553l-1.441-1.048c-.524-.393-1.048-.917-1.048-1.834s.655-1.703 1.31-2.096c1.703-1.31 3.406-2.751 3.406-5.633 0-2.751-1.703-4.323-2.62-5.109h2.227l1.572-1.834h-8.122c-5.764 0-8.646 3.668-8.646 7.597 0 3.013 2.358 6.288 6.55 6.288h1.048c-.131.393-.524 1.048-.524 1.703 0 1.31.524 1.834 1.179 2.62-1.834.131-5.24.524-7.729 2.096C.654 21.744-.001 23.709-.001 25.15c0 3.013 2.751 5.895 8.646 5.895 7.074 0 10.48-3.93 10.48-7.728 0-2.751-1.441-4.192-3.275-5.764zM5.895 5.633c0-2.882 1.703-4.192 3.537-4.192 3.406 0 5.24 4.585 5.24 7.205 0 3.406-2.751 4.061-3.799 4.061-3.275 0-4.978-4.061-4.978-7.074zm4.715 23.578c-4.323 0-7.074-1.965-7.074-4.847s2.62-3.799 3.406-4.192c1.703-.524 3.93-.655 4.323-.655h.917c3.144 2.227 4.454 3.144 4.454 5.24 0 2.489-2.489 4.454-6.026 4.454z"/></symbol><symbol id="twiter" viewBox="0 0 39 32"><path d="M39.006 3.752a16.692 16.692 0 01-4.608 1.263 7.952 7.952 0 003.518-4.42 15.99 15.99 0 01-5.071 1.936 8.012 8.012 0 00-5.841-2.53c-4.427 0-7.991 3.593-7.991 7.999 0 .634.054 1.243.185 1.824C12.55 9.5 6.667 6.313 2.716 1.46a8.05 8.05 0 00-1.095 4.042 8.01 8.01 0 003.552 6.646 7.887 7.887 0 01-3.613-.985v.088c0 3.886 2.772 7.114 6.407 7.857a7.98 7.98 0 01-2.097.263c-.512 0-1.029-.029-1.514-.137 1.036 3.167 3.976 5.495 7.472 5.57a16.07 16.07 0 01-9.915 3.411 14.88 14.88 0 01-1.914-.11c3.542 2.284 7.74 3.589 12.267 3.589 14.715 0 22.76-12.189 22.76-22.755 0-.354-.012-.695-.029-1.034 1.587-1.126 2.92-2.533 4.008-4.152z"/></symbol></defs></svg>